<svg width="3171" height="2480" viewBox="0 0 3171 2480" fill="none" xmlns="http://www.w3.org/2000/svg">
<g clip-path="url(#clip0_1_64)">
<path d="M1396.53 84.9179C1393 84.7581 1389.55 86.0074 1386.94 88.3916L1334.29 136.465C1308.24 112.721 1275.22 96.9318 1240.29 91.7825C1232.45 90.6277 1224.56 90.0025 1216.66 89.9075C1192.95 89.6222 1169.23 94.0724 1147.24 103.043C1117.91 115.004 1092.01 134.853 1072.84 160.069C1072.83 160.084 1072.82 160.099 1072.81 160.114C1071.91 161.357 1071.24 162.746 1070.81 164.219C1070.7 164.596 1070.6 164.978 1070.52 165.364C1070.4 165.757 1070.3 166.155 1070.21 166.557C1070.1 167.615 1070.11 168.684 1070.25 169.739C1070.25 169.819 1070.25 169.899 1070.25 169.978C1070.49 171.508 1071 172.983 1071.75 174.338C1071.93 174.665 1072.12 174.985 1072.32 175.296C1073.11 176.558 1074.1 177.679 1075.25 178.614C1075.29 178.66 1075.33 178.705 1075.37 178.751C1075.39 178.76 1075.4 178.77 1075.41 178.779C1076.66 179.688 1078.07 180.372 1079.56 180.8C1079.91 180.907 1080.28 180.999 1080.64 181.076C1081.05 181.199 1081.46 181.303 1081.87 181.388L1182.23 193.358L1184.6 277.753C1184.63 277.994 1184.67 278.234 1184.72 278.472C1184.77 279.05 1184.86 279.624 1184.99 280.19C1185.11 280.753 1185.26 281.309 1185.45 281.852C1185.65 282.393 1185.89 282.92 1186.16 283.43C1186.42 283.95 1186.71 284.453 1187.03 284.935C1187.37 285.412 1187.74 285.866 1188.14 286.294C1188.52 286.713 1188.92 287.108 1189.34 287.477C1189.8 287.858 1190.28 288.207 1190.79 288.524C1191.26 288.834 1191.75 289.114 1192.26 289.362C1192.8 289.609 1193.35 289.819 1193.91 289.992C1194.44 290.168 1194.98 290.311 1195.53 290.419C1195.77 290.491 1196.02 290.556 1196.27 290.613L1292.38 302.655L1304.44 400.233C1304.49 400.462 1304.55 400.689 1304.61 400.915C1304.69 401.275 1304.78 401.631 1304.89 401.983C1305.22 403.237 1305.73 404.435 1306.41 405.54C1306.49 405.74 1306.57 405.938 1306.66 406.134C1306.73 406.195 1306.79 406.256 1306.85 406.316C1307.74 407.539 1308.83 408.603 1310.07 409.462C1310.38 409.664 1310.71 409.854 1311.03 410.03C1312.16 410.683 1313.37 411.169 1314.63 411.472C1314.91 411.558 1315.19 411.635 1315.47 411.703C1316.74 411.929 1318.03 411.971 1319.31 411.828C1319.65 411.782 1319.99 411.723 1320.33 411.651C1320.38 411.642 1320.43 411.633 1320.48 411.623C1322.15 411.261 1323.75 410.578 1325.16 409.612C1325.18 409.603 1325.19 409.593 1325.2 409.584C1368.36 380.024 1396.08 330.232 1398.47 277.975C1400.52 233.012 1383.75 188.129 1353.27 155.225L1404.91 108.074C1407.52 105.689 1409.08 102.366 1409.24 98.8339C1409.4 95.3022 1408.15 91.8512 1405.76 89.2402C1403.38 86.6295 1400.06 85.073 1396.52 84.9124L1396.53 84.9179ZM1216.34 116.585C1223.06 116.661 1229.77 117.185 1236.4 118.163C1269.59 123.055 1301.25 139.554 1324.27 163.955C1324.33 163.999 1324.39 164.042 1324.45 164.085C1324.57 164.192 1324.69 164.296 1324.81 164.398C1324.88 164.501 1324.96 164.604 1325.04 164.705C1355.92 192.563 1373.73 235.224 1371.84 276.767C1370.2 312.605 1353.76 347.861 1327.94 372.944L1317.57 289.069C1317.56 289.047 1317.56 289.024 1317.55 289.001C1317.4 287.905 1317.12 286.831 1316.71 285.803C1316.69 285.739 1316.66 285.674 1316.64 285.61C1316.22 284.595 1315.67 283.637 1315.02 282.755C1314.98 282.698 1314.93 282.641 1314.89 282.585C1314.22 281.711 1313.44 280.924 1312.58 280.241C1312.53 280.205 1312.49 280.171 1312.44 280.136C1310.64 278.758 1308.53 277.86 1306.29 277.526C1306.23 277.515 1306.17 277.505 1306.11 277.495C1306.07 277.485 1306.03 277.476 1305.99 277.467L1210.93 265.555L1208.56 181.087C1208.55 181.05 1208.54 181.013 1208.54 180.976C1208.49 179.882 1208.32 178.797 1208.01 177.746C1207.99 177.68 1207.97 177.614 1207.95 177.548C1207.63 176.489 1207.17 175.474 1206.6 174.527C1206.57 174.489 1206.55 174.451 1206.52 174.413C1205.93 173.452 1205.22 172.569 1204.4 171.788C1204.38 171.774 1204.37 171.76 1204.35 171.746C1203.51 170.956 1202.57 170.278 1201.56 169.73C1201.55 169.73 1201.54 169.73 1201.53 169.73C1200.54 169.197 1199.48 168.793 1198.38 168.527C1198.33 168.514 1198.28 168.502 1198.23 168.489C1197.76 168.375 1197.27 168.286 1196.79 168.225L1110.48 157.933C1124.06 145.116 1140.01 134.765 1157.26 127.73C1175.89 120.134 1196.14 116.348 1216.3 116.579L1216.34 116.585Z" fill="#333333"/>
<path d="M1100.51 183.605C1073.29 218.018 1040.83 248.322 1004.57 273.017C968.542 297.552 927.898 317.073 889.24 342.121C850.497 367.225 812.95 399.02 791.36 442.491C772.533 480.398 767.766 524.711 778.094 565.756C788.351 606.522 813.264 643.066 847.427 667.549C878.278 695.316 918.38 712.169 959.813 714.746C1001.49 717.34 1043.62 705.446 1077.79 681.434C1106.47 661.273 1128.22 633.923 1146.35 605.783C1164.47 577.673 1179.3 548.511 1195.96 521.403C1225.4 473.514 1261.75 429.865 1303.44 392.153L1299.5 360.178C1250.05 402.272 1207.25 452.115 1173.25 507.439C1155.83 535.766 1141.08 564.745 1123.94 591.335C1106.83 617.893 1087.01 642.358 1062.45 659.616C1033.38 680.054 996.938 690.344 961.464 688.137C925.99 685.929 891.112 671.199 864.792 647.314C864.712 647.271 864.633 647.23 864.553 647.189C864.231 646.88 863.894 646.588 863.542 646.314C834.35 625.613 812.687 593.956 803.954 559.251C795.222 524.546 799.327 486.407 815.246 454.355C833.625 417.35 867.074 388.254 903.74 364.496C940.49 340.684 981.337 321.102 1019.58 295.058C1062.55 265.793 1100.39 229.149 1131.18 187.262L1100.51 183.605Z" fill="#355FD1"/>
</g>
<path d="M305.715 1770C302.179 1770 298.788 1771.41 296.287 1773.91C293.787 1776.41 292.382 1779.8 292.382 1783.33V1840.39C278.277 1848.18 262.51 1853.1 246.492 1854.65C232.751 1855.97 217.513 1854.8 200.981 1855.73C184.322 1856.66 165.86 1860.01 150.33 1871.47C134.029 1883.5 124.272 1902.58 123.512 1922.62C122.755 1942.6 130.919 1961.99 145.236 1975.66C153.952 1983.98 164.684 1989.98 176.346 1993.06C188.008 1996.13 200.32 1996.2 212.017 1993.23C226.088 1989.65 238.613 1981.76 247.996 1971.04C252.12 1976.37 256.979 1981.12 262.45 1985.15C274.959 1994.35 290.188 1999.35 305.715 1999.35C321.242 1999.35 336.477 1994.35 348.986 1985.15C354.457 1981.12 359.316 1976.37 363.439 1971.04C372.822 1981.76 385.349 1989.64 399.419 1993.22C411.116 1996.2 423.433 1996.13 435.096 1993.06C446.758 1989.99 457.484 1983.97 466.2 1975.65C480.517 1961.98 488.686 1942.6 487.929 1922.62C487.169 1902.58 477.401 1883.5 461.101 1871.48C445.57 1860.01 427.114 1856.66 410.455 1855.73C393.923 1854.8 378.685 1855.97 364.944 1854.65C348.924 1853.1 333.155 1848.18 319.048 1840.39V1783.33C319.048 1779.8 317.643 1776.41 315.143 1773.91C312.642 1771.41 309.251 1770 305.715 1770ZM305.715 1863.5C323.132 1873.2 342.5 1879.27 362.371 1881.19C379.207 1882.81 394.816 1881.57 408.955 1882.36C422.966 1883.15 436.076 1886.15 445.262 1892.93C454.589 1899.82 460.826 1911.85 461.272 1923.63C461.721 1935.48 456.502 1948.05 447.782 1956.37C442.371 1961.54 435.519 1965.37 428.293 1967.28C421.067 1969.18 413.219 1969.21 405.986 1967.38C392.343 1963.91 380.044 1952.78 375.231 1939.55C375.221 1939.53 375.21 1939.51 375.2 1939.49C374.729 1938.22 374.067 1937.03 373.236 1935.95C373.219 1935.93 373.202 1935.9 373.185 1935.88C372.332 1934.79 371.317 1933.84 370.174 1933.07C370.155 1933.06 370.136 1933.05 370.117 1933.03C369.056 1932.32 367.899 1931.77 366.68 1931.38C366.621 1931.37 366.562 1931.36 366.503 1931.35C366.22 1931.29 365.935 1931.25 365.649 1931.21C364.68 1930.97 363.687 1930.85 362.691 1930.84C362.231 1930.86 361.772 1930.9 361.316 1930.96C360.483 1931.04 359.66 1931.2 358.857 1931.44C358.618 1931.48 358.381 1931.53 358.144 1931.58C357.922 1931.69 357.703 1931.82 357.488 1931.94C356.723 1932.28 355.99 1932.68 355.301 1933.15C354.91 1933.4 354.533 1933.67 354.17 1933.95C353.463 1934.57 352.823 1935.25 352.259 1936C352.017 1936.26 351.786 1936.54 351.566 1936.82C350.887 1937.85 350.352 1938.96 349.978 1940.13C347.083 1949.4 341.008 1957.92 333.186 1963.67C325.363 1969.42 315.421 1972.68 305.712 1972.68C296.002 1972.68 286.066 1969.42 278.243 1963.67C270.421 1957.92 264.346 1949.4 261.451 1940.13C261.426 1940.07 261.401 1940.02 261.375 1939.96C261.051 1938.98 260.614 1938.04 260.072 1937.15C260.009 1937.05 259.945 1936.95 259.879 1936.85C259.312 1935.98 258.646 1935.18 257.894 1934.47C257.81 1934.38 257.724 1934.3 257.638 1934.22C256.855 1933.52 255.992 1932.91 255.066 1932.41C254.989 1932.36 254.911 1932.31 254.832 1932.27C254.332 1932.01 253.815 1931.78 253.285 1931.58C253.061 1931.54 252.835 1931.49 252.608 1931.45C251.779 1931.21 250.928 1931.04 250.067 1930.96C249.635 1930.9 249.2 1930.86 248.764 1930.84C247.724 1930.85 246.687 1930.97 245.676 1931.22C245.432 1931.26 245.188 1931.3 244.946 1931.35C244.88 1931.36 244.814 1931.37 244.748 1931.38C243.569 1931.76 242.449 1932.3 241.419 1932.99C241.171 1933.18 240.93 1933.38 240.696 1933.6C239.915 1934.18 239.201 1934.84 238.566 1935.58C238.285 1935.94 238.022 1936.31 237.779 1936.69C237.3 1937.39 236.888 1938.13 236.55 1938.91C236.426 1939.12 236.308 1939.33 236.196 1939.55C231.383 1952.78 219.083 1963.91 205.441 1967.38C198.208 1969.22 190.359 1969.18 183.133 1967.28C175.907 1965.37 169.055 1961.54 163.644 1956.37C154.924 1948.05 149.705 1935.48 150.154 1923.63C150.601 1911.85 156.838 1899.82 166.164 1892.93C175.351 1886.15 188.455 1883.15 202.467 1882.36C216.605 1881.57 232.219 1882.81 249.055 1881.19C268.927 1879.27 288.297 1873.2 305.715 1863.5Z" fill="#333333"/>
<path d="M124.632 1912.83C101.189 1920.57 80.1199 1934.93 64.4549 1954.08C46.8177 1975.65 36.4439 2002.71 35.148 2030.54C33.1415 2073.62 51.911 2112.37 68.7834 2147.39C102.133 2216.6 137.006 2289.34 195.617 2343.96C217.936 2364.76 245.352 2383.95 278.294 2388.53C287.384 2389.8 296.608 2389.83 305.715 2388.72C314.824 2389.83 324.051 2389.8 333.142 2388.53C366.084 2383.95 393.5 2364.76 415.82 2343.96C474.43 2289.34 509.303 2216.6 542.653 2147.39C559.525 2112.37 578.295 2073.62 576.288 2030.54C574.993 2002.71 564.612 1975.65 546.976 1954.08C531.312 1934.93 510.249 1920.57 486.809 1912.83C487.412 1916.05 487.804 1919.32 487.929 1922.62C488.165 1928.87 487.436 1935.03 486.013 1941.01C501.594 1947.57 515.673 1957.93 526.336 1970.96C540.259 1987.98 548.625 2009.81 549.648 2031.78C551.249 2066.17 535.428 2100.96 518.632 2135.81C485.295 2205 451.42 2274.34 397.642 2324.45C377.388 2343.32 354.166 2358.68 329.471 2362.12C322.22 2363.13 314.805 2363.13 307.554 2362.12C306.935 2362.15 306.319 2362.23 305.711 2362.35C305.107 2362.23 304.496 2362.15 303.882 2362.12C296.631 2363.13 289.216 2363.13 281.965 2362.12C257.27 2358.68 234.047 2343.32 213.794 2324.45C160.015 2274.34 126.141 2205 92.8042 2135.81C76.0075 2100.96 60.1817 2066.17 61.7834 2031.78C62.8063 2009.81 71.1775 1987.98 85.1008 1970.96C95.7646 1957.93 109.845 1947.56 125.429 1941C124.007 1935.03 123.276 1928.87 123.513 1922.62C123.638 1919.32 124.03 1916.05 124.632 1912.83ZM177.028 2088.87C173.492 2088.87 170.101 2090.27 167.6 2092.78C165.1 2095.28 163.695 2098.67 163.695 2102.2C163.695 2105.74 165.1 2109.13 167.6 2111.63C170.101 2114.13 173.492 2115.54 177.028 2115.54H202.059C205.595 2115.54 208.987 2114.13 211.488 2111.63C213.988 2109.13 215.392 2105.74 215.392 2102.2C215.392 2098.67 213.988 2095.28 211.488 2092.78C208.987 2090.27 205.595 2088.87 202.059 2088.87H177.028ZM290.273 2088.87C286.737 2088.87 283.345 2090.27 280.845 2092.78C278.344 2095.28 276.94 2098.67 276.94 2102.2C276.94 2105.74 278.344 2109.13 280.845 2111.63C283.345 2114.13 286.737 2115.54 290.273 2115.54H315.304C318.84 2115.54 322.232 2114.13 324.732 2111.63C327.233 2109.13 328.638 2105.74 328.638 2102.2C328.638 2098.67 327.233 2095.28 324.732 2092.78C322.232 2090.27 318.84 2088.87 315.304 2088.87H290.273ZM403.517 2088.87C399.981 2088.87 396.59 2090.27 394.09 2092.78C391.589 2095.28 390.184 2098.67 390.184 2102.2C390.184 2105.74 391.589 2109.13 394.09 2111.63C396.59 2114.13 399.981 2115.54 403.517 2115.54H428.549C432.085 2115.54 435.477 2114.13 437.977 2111.63C440.478 2109.13 441.882 2105.74 441.882 2102.2C441.882 2098.67 440.478 2095.28 437.977 2092.78C435.477 2090.27 432.085 2088.87 428.549 2088.87H403.517ZM233.648 2169.85C230.112 2169.85 226.72 2171.26 224.22 2173.76C221.719 2176.26 220.315 2179.65 220.315 2183.19C220.315 2186.72 221.719 2190.12 224.22 2192.62C226.72 2195.12 230.112 2196.52 233.648 2196.52H258.684C262.22 2196.52 265.612 2195.12 268.113 2192.62C270.613 2190.12 272.017 2186.72 272.017 2183.19C272.017 2179.65 270.613 2176.26 268.113 2173.76C265.612 2171.26 262.22 2169.85 258.684 2169.85H233.648ZM346.892 2169.85C343.356 2169.85 339.965 2171.26 337.465 2173.76C334.964 2176.26 333.559 2179.65 333.559 2183.19C333.559 2186.72 334.964 2190.12 337.465 2192.62C339.965 2195.12 343.356 2196.52 346.892 2196.52H371.924C375.46 2196.52 378.852 2195.12 381.352 2192.62C383.853 2190.12 385.257 2186.72 385.257 2183.19C385.257 2179.65 383.853 2176.26 381.352 2173.76C378.852 2171.26 375.46 2169.85 371.924 2169.85H346.892ZM290.273 2250.83C286.737 2250.83 283.345 2252.24 280.845 2254.74C278.344 2257.24 276.94 2260.63 276.94 2264.17C276.94 2267.7 278.344 2271.09 280.845 2273.59C283.345 2276.1 286.737 2277.5 290.273 2277.5H315.304C318.84 2277.5 322.232 2276.1 324.732 2273.59C327.233 2271.09 328.638 2267.7 328.638 2264.17C328.638 2260.63 327.233 2257.24 324.732 2254.74C322.232 2252.24 318.84 2250.83 315.304 2250.83H290.273Z" fill="#FF4D4C"/>
<path d="M353.085 92.421C317.685 97.622 285.394 118.214 265.756 148.124C249.934 172.221 242.762 201.504 245.646 230.186C246 233.704 247.738 236.938 250.475 239.176C253.213 241.414 256.728 242.472 260.246 242.119C263.764 241.765 266.997 240.028 269.235 237.29C271.473 234.553 272.532 231.038 272.178 227.52C269.922 205.085 275.677 181.613 288.053 162.765C303.347 139.472 329.396 122.852 356.964 118.802C360.461 118.287 363.612 116.404 365.721 113.567C367.831 110.731 368.727 107.173 368.214 103.676C367.96 101.943 367.368 100.278 366.47 98.7744C365.572 97.2711 364.386 95.9599 362.981 94.9147C361.576 93.8695 359.979 93.1113 358.281 92.6835C356.583 92.2556 354.818 92.1664 353.085 92.421Z" fill="#333333"/>
<path d="M167.695 88.0202C164.288 87.9662 160.881 88.0197 157.477 88.1904C148.398 88.6409 139.353 89.8871 130.461 91.9459C130.123 92.0678 129.789 92.2033 129.461 92.3522C128.802 92.5606 128.159 92.8197 127.539 93.1279C126.92 93.4422 126.326 93.8043 125.763 94.2112C125.205 94.6111 124.68 95.0533 124.191 95.5341C123.699 96.0207 123.246 96.5453 122.836 97.1022C122.421 97.6642 122.049 98.2577 121.727 98.8779C121.415 99.4868 121.15 100.119 120.935 100.769C120.714 101.427 120.545 102.1 120.429 102.784C120.318 103.473 120.261 104.17 120.259 104.867C120.215 105.219 120.186 105.572 120.171 105.925C122.731 140.319 141.253 172.524 169.696 192.029C191.744 207.148 218.766 213.832 245.207 211.446C245.667 202.19 247.143 193.011 249.588 184.087C227.357 187.803 203.306 182.744 184.779 170.04C166.587 157.564 153.353 137.425 148.546 115.774C174.311 112.443 201.289 117.025 224.327 128.909C237.925 135.924 250.261 145.471 260.561 156.81C262.177 153.851 263.903 150.95 265.759 148.123C268.914 143.318 272.427 138.781 276.196 134.482C264.644 122.706 251.239 112.781 236.556 105.206C215.263 94.2222 191.538 88.3997 167.695 88.0202ZM245.06 215.958C235.82 217.06 226.791 219.76 218.524 224.16C205.838 230.913 195.287 241.223 188.242 253.749C181.363 265.98 178.443 278.887 176.211 290.666C173.985 302.416 172.355 313.272 169.153 322.629C162.996 340.622 149.954 356.956 135.143 372.65C120.291 388.39 103.245 404.133 89.742 424.291C73.9024 447.937 64.7764 475.581 62.5489 503.692C60.3228 531.779 64.9415 560.059 75.06 586.072C88.669 621.058 112.258 651.894 142.461 674.187C172.665 696.48 209.082 709.934 246.524 712.629C246.61 712.613 246.696 712.596 246.782 712.578C246.859 712.603 246.936 712.628 247.013 712.652C288.063 714.118 329.244 702.588 363.56 680.011C397.876 657.434 424.766 624.18 439.668 585.902C449.796 559.889 454.416 531.611 452.189 503.522C449.96 475.409 440.833 447.766 424.992 424.121C411.487 403.964 394.443 388.22 379.591 372.481C364.781 356.786 351.732 340.458 345.575 322.465C342.374 313.108 340.745 302.247 338.518 290.496C336.287 278.717 333.365 265.81 326.486 253.579C319.442 241.054 308.886 230.748 296.2 223.996C288.55 219.924 280.253 217.287 271.736 216.032C271.665 219.873 271.797 223.713 272.179 227.522C272.51 230.839 271.586 234.16 269.589 236.829C267.593 239.499 264.669 241.323 261.393 241.944C262.192 241.944 262.989 241.876 263.789 241.915C270.711 242.364 277.593 244.285 283.668 247.52C291.77 251.832 298.743 258.635 303.242 266.634C307.694 274.55 310.248 284.515 312.32 295.447C314.396 306.406 316.065 318.574 320.346 331.087C328.573 355.13 344.512 374.15 360.195 390.77C375.835 407.345 391.61 422.198 402.835 438.952C415.95 458.527 423.723 481.867 425.606 505.613C427.491 529.384 423.566 553.753 414.82 576.217C401.97 609.223 378.492 638.25 348.903 657.717C319.405 677.124 283.584 687.194 248.293 686.004C216.03 683.653 184.326 671.934 158.299 652.723C132.233 633.484 111.654 606.588 99.9086 576.395C91.1688 553.926 87.2484 529.556 89.1322 505.786C91.0138 482.039 98.7813 458.693 111.893 439.119C123.117 422.364 138.899 407.511 154.539 390.936C170.221 374.317 186.16 355.297 194.388 331.254C198.669 318.741 200.338 306.573 202.414 295.613C204.485 284.682 207.035 274.727 211.486 266.811C215.985 258.811 222.953 251.998 231.054 247.686C239.156 243.375 248.692 241.404 257.841 242.14C258.074 242.102 258.308 242.058 258.539 242.008C255.325 241.922 252.25 240.677 249.881 238.502C247.512 236.328 246.008 233.37 245.648 230.175C245.171 225.44 244.994 220.688 245.06 215.946V215.958ZM153.123 506.947C151.371 506.956 149.638 507.311 148.024 507.99C146.41 508.67 144.946 509.66 143.714 510.906C142.483 512.151 141.508 513.627 140.848 515.249C140.187 516.871 139.851 518.607 139.861 520.358C140.063 555.527 158.386 589.261 187.778 608.572C205.787 620.405 227.221 626.526 248.763 625.994C252.298 625.907 255.653 624.419 258.091 621.858C260.528 619.297 261.849 615.872 261.763 612.338C261.675 608.803 260.188 605.448 257.627 603.01C255.066 600.572 251.642 599.251 248.107 599.338C232.11 599.733 215.798 595.067 202.424 586.281C180.874 572.121 166.676 545.993 166.528 520.208C166.519 518.457 166.165 516.725 165.486 515.111C164.808 513.496 163.817 512.032 162.573 510.801C161.328 509.569 159.852 508.595 158.231 507.934C156.61 507.273 154.873 506.937 153.123 506.947Z" fill="#2AFF2A"/>
<path d="M1969.91 99.0068C1945.93 99.1547 1921.97 101.689 1898.47 106.622C1835.82 119.776 1776.98 149.938 1729.73 193.132C1676.35 241.926 1637.85 307.921 1626.5 379.95C1617.19 439.076 1626.6 500.714 1652.9 554.444C1643.66 570.009 1639.35 588.251 1640.77 606.376C1642.41 627.279 1651.6 647.16 1666.46 661.95C1681.66 677.071 1702.14 686.22 1723.54 687.454C1742.13 688.527 1760.72 683.576 1776.32 673.554C1827.33 696.695 1884.41 705.977 1940.13 700.037C2019.82 691.543 2094.8 651.928 2148.58 592.903C2192.21 545.007 2221.94 484.82 2233.44 421.054C2244.59 359.204 2238.45 294.535 2216.03 235.84C2224.55 215.896 2226.05 193.302 2220.07 172.382C2213.53 149.5 2198.37 129.628 2178.02 117.289C2162.63 107.953 2144.73 103.157 2126.73 103.548C2110.92 103.892 2095.37 108.23 2081.68 116.048C2045.59 104.543 2007.75 98.773 1969.91 99.0068ZM1970.07 125.689C2007.1 125.467 2044.18 131.354 2079.21 143.221C2079.34 143.232 2079.46 143.241 2079.59 143.248C2081.48 143.804 2083.47 143.935 2085.42 143.629C2085.75 143.602 2086.09 143.562 2086.42 143.51C2088.01 143.179 2089.52 142.561 2090.89 141.686C2101.56 134.561 2114.47 130.491 2127.31 130.212C2140.14 129.934 2153.22 133.433 2164.19 140.087C2178.61 148.831 2189.8 163.499 2194.44 179.712C2199.07 195.925 2197.31 214.287 2189.69 229.328C2189.05 230.608 2188.62 231.982 2188.41 233.4C2188.41 233.513 2188.41 233.626 2188.41 233.739C2188.2 235.734 2188.44 237.752 2189.12 239.64C2189.15 239.87 2189.17 240.099 2189.21 240.328C2211.46 295.709 2217.79 357.583 2207.2 416.322C2196.6 475.06 2169.07 530.827 2128.87 574.947C2079.42 629.221 2010.03 665.779 1937.31 673.53C1884 679.213 1828.97 669.612 1780.73 646.218C1780.51 646.171 1780.3 646.129 1780.08 646.093C1778.2 645.257 1776.16 644.865 1774.11 644.947C1773.92 644.979 1773.73 645.014 1773.54 645.054C1771.59 645.277 1769.72 645.929 1768.05 646.961C1767.77 647.107 1767.49 647.263 1767.22 647.429C1767.03 647.529 1766.84 647.633 1766.65 647.742C1755.09 656.857 1739.77 661.678 1725.07 660.83C1710.37 659.983 1695.71 653.429 1685.27 643.044C1675.06 632.881 1668.48 618.658 1667.36 604.294C1666.23 589.93 1670.51 574.851 1679.01 563.221C1679.34 562.768 1679.64 562.295 1679.9 561.804C1679.95 561.719 1679.99 561.634 1680.03 561.548C1680.4 560.866 1680.7 560.153 1680.94 559.418C1680.96 559.376 1680.97 559.335 1680.98 559.293C1681.21 558.529 1681.37 557.748 1681.46 556.955C1681.48 556.851 1681.49 556.746 1681.51 556.642C1681.58 555.864 1681.59 555.083 1681.53 554.304C1681.53 554.193 1681.51 554.082 1681.5 553.971C1681.42 553.183 1681.27 552.403 1681.06 551.642C1681.04 551.577 1681.01 551.513 1680.99 551.448C1680.76 550.691 1680.46 549.956 1680.1 549.251C1680.09 549.22 1680.08 549.188 1680.07 549.157C1680.04 549.128 1680.03 549.098 1680.02 549.069C1653.76 498.933 1644.05 440.004 1652.85 384.094C1663.14 318.785 1698.49 257.822 1747.73 212.814C1791.4 172.893 1846.06 144.872 1903.96 132.715C1925.68 128.156 1947.87 125.822 1970.08 125.689H1970.07ZM2057.46 528.705C2053.93 528.536 2050.47 529.775 2047.85 532.153C2026.42 551.634 2001.19 567.015 1974.06 577.147C1947.12 587.206 1918.22 592.129 1889.47 591.548C1887.72 591.513 1885.98 591.824 1884.35 592.461C1882.72 593.098 1881.23 594.051 1879.96 595.264C1878.7 596.477 1877.69 597.927 1876.99 599.53C1876.28 601.134 1875.9 602.86 1875.87 604.611C1875.8 608.146 1877.13 611.565 1879.58 614.115C1882.03 616.665 1885.4 618.139 1888.93 618.21C1921.07 618.859 1953.27 613.379 1983.39 602.132C2013.73 590.803 2041.83 573.67 2065.79 551.887C2068.41 549.509 2069.97 546.187 2070.14 542.655C2070.31 539.124 2069.06 535.67 2066.69 533.054C2064.31 530.438 2060.99 528.874 2057.46 528.705Z" fill="#FBA021"/>
<path d="M2626.4 264.477C2626.05 264.533 2625.7 264.601 2625.35 264.684C2625.11 264.646 2624.87 264.616 2624.62 264.591C2584.33 270.034 2547.13 292.459 2523.51 325.55C2499.3 359.462 2490.77 401.503 2492.14 441.601C2494.36 506.682 2520.86 566.843 2549.45 622.252C2560.64 643.923 2572.91 666.587 2591.09 685.783C2609.44 705.149 2634.3 720.614 2662.84 722.377C2685.67 723.788 2708.43 715.93 2725.59 700.836C2725.61 700.822 2725.63 700.807 2725.66 700.793C2737.68 691.568 2752.79 686.067 2767.93 685.412C2785.19 684.665 2802.98 690.278 2816.68 700.793C2816.71 700.81 2816.74 700.827 2816.76 700.844C2833.92 715.931 2856.68 723.786 2879.5 722.376C2908.03 720.613 2932.9 705.148 2951.24 685.782C2969.43 666.586 2981.71 643.921 2992.89 622.251C3021.48 566.842 3047.99 506.681 3050.2 441.6C3051.57 401.502 3043.04 359.454 3018.83 325.541C2995.2 292.451 2958.01 270.031 2917.72 264.589C2917.13 264.511 2916.53 264.473 2915.94 264.475L2626.4 264.477ZM2627.43 291.144H2914.92C2947.36 295.753 2978.09 314.38 2997.12 341.045C3016.95 368.814 3024.76 405.046 3023.55 440.691C3021.56 499.035 2997.23 555.691 2969.19 610.025C2958.22 631.287 2946.93 651.57 2931.88 667.445C2917 683.152 2897.55 694.547 2877.86 695.764C2862.07 696.739 2845.48 690.937 2833.74 680.326C2833.73 680.317 2833.71 680.306 2833.7 680.297C2833.45 680.066 2833.19 679.846 2832.91 679.636C2814.1 665.199 2790.47 657.735 2766.78 658.761C2746.05 659.658 2725.87 667.004 2709.41 679.636C2709.23 679.809 2709.05 679.989 2708.88 680.173C2708.78 680.22 2708.69 680.268 2708.59 680.318C2696.85 690.929 2680.27 696.731 2664.48 695.755C2644.79 694.539 2625.34 683.144 2610.46 667.437C2595.42 651.561 2584.12 631.279 2573.15 610.016C2545.11 555.682 2520.78 499.027 2518.79 440.683C2517.58 405.038 2525.39 368.805 2545.21 341.037C2564.25 314.372 2594.98 295.745 2627.43 291.136L2627.43 291.144ZM2880.69 338.483C2873.16 338.651 2865.66 339.913 2858.45 342.279C2856.78 342.824 2855.24 343.691 2853.91 344.832C2852.58 345.972 2851.49 347.364 2850.7 348.926C2849.91 350.488 2849.43 352.191 2849.3 353.937C2849.17 355.683 2849.38 357.438 2849.93 359.102C2851.03 362.462 2853.42 365.247 2856.57 366.844C2859.73 368.441 2863.39 368.719 2866.75 367.618C2877.36 364.14 2889.46 364.379 2899.92 368.269C2910.38 372.159 2919.7 379.883 2925.46 389.445C2932.87 401.747 2934.61 418.004 2929.98 431.597C2928.84 434.944 2929.07 438.607 2930.63 441.78C2932.19 444.954 2934.95 447.378 2938.3 448.519C2941.64 449.66 2945.31 449.425 2948.48 447.865C2951.65 446.305 2954.08 443.548 2955.22 440.201C2962.5 418.855 2959.94 395.01 2948.31 375.69C2939.35 360.82 2925.49 349.324 2909.22 343.275C2901.08 340.25 2892.51 338.651 2883.91 338.483C2882.84 338.455 2881.76 338.455 2880.69 338.483Z" fill="#FF4D4C"/>
<path d="M2671.86 78.0044C2656.99 78.1239 2642.16 80.9255 2628.24 86.3322C2628.06 86.4338 2627.88 86.5386 2627.7 86.6489C2627.08 86.9493 2626.48 87.2976 2625.91 87.6905C2625.31 88.0501 2624.75 88.4561 2624.21 88.9044C2623.71 89.3834 2623.25 89.901 2622.83 90.4516C2622.38 90.973 2621.97 91.5282 2621.61 92.1128C2621.28 92.7317 2620.99 93.3768 2620.76 94.0405C2620.5 94.6708 2620.28 95.3206 2620.12 95.9836C2620.05 96.185 2619.98 96.3872 2619.92 96.5919C2615.56 123.062 2622.1 150.69 2637.87 172.395C2653.64 194.099 2677.88 208.856 2704.4 212.895C2721.28 215.466 2738.53 213.554 2754.38 207.759C2750.41 226.378 2750.19 245.758 2753.86 264.478H2781.2C2774.6 237.452 2778.23 207.607 2791.46 183.207C2807.96 152.79 2839.88 130.415 2874.1 125.279C2875.83 125.02 2877.49 124.423 2879 123.52C2880.5 122.617 2881.8 121.427 2882.85 120.018C2883.89 118.61 2884.64 117.01 2885.06 115.31C2885.48 113.61 2885.57 111.845 2885.31 110.113C2884.78 106.617 2882.89 103.473 2880.05 101.372C2877.2 99.2716 2873.64 98.386 2870.15 98.91C2836.42 103.971 2805.38 121.78 2783.59 147.692C2776.73 133.433 2767.15 120.508 2755.36 109.832C2738.51 94.5575 2717.51 84.1647 2695.14 80.0294C2689.55 78.9958 2683.9 78.3597 2678.23 78.1128C2676.11 78.0189 2673.98 77.9874 2671.86 78.0044ZM2673.75 104.681C2679.3 104.726 2684.85 105.247 2690.29 106.253C2707.7 109.472 2724.34 117.703 2737.46 129.592C2750.02 140.975 2759.52 155.927 2764.65 172.129C2748.86 183.967 2727.83 189.486 2708.42 186.529C2689.19 183.602 2670.87 172.45 2659.44 156.717C2649.53 143.072 2644.51 125.568 2645.41 108.645C2654.57 105.944 2664.18 104.601 2673.75 104.681Z" fill="#333333"/>
<path d="M1198.26 1052.39C1166.85 1052.49 1135.96 1064.18 1112.34 1084.89C1088.72 1105.61 1073.1 1134.71 1068.9 1165.85C1068.91 1166.1 1068.92 1166.35 1068.95 1166.61C1068.88 1166.95 1068.83 1167.29 1068.78 1167.63V1359.92C1068.62 1383.39 1055.69 1407.22 1036.11 1420.15C1023.49 1428.49 1007.96 1432.8 992.853 1432.15C992.82 1432.15 992.786 1432.15 992.753 1432.15C992.595 1432.14 992.438 1432.13 992.279 1432.13H914.3C899.444 1431.3 884.787 1436.41 873.69 1446.35C862.396 1456.47 855.651 1470.8 855.045 1485.95C854.408 1501.87 860.614 1517.41 872.05 1528.51C883.309 1539.43 898.703 1545.15 914.347 1544.27H1082.12C1082.41 1544.23 1082.71 1544.18 1083 1544.12C1083.21 1544.15 1083.41 1544.16 1083.62 1544.18C1127.26 1539.23 1169.53 1523.56 1205.85 1498.85C1255.81 1464.86 1293.7 1414 1311.97 1356.4C1312.07 1356.04 1312.17 1355.66 1312.24 1355.29C1312.27 1355.22 1312.29 1355.16 1312.31 1355.1C1322.13 1308.15 1326.7 1260.12 1325.93 1212.16C1325.51 1186.46 1323.56 1160.8 1320.09 1135.34C1320.09 1135.32 1320.09 1135.31 1320.09 1135.29C1319.93 1134.13 1319.61 1132.98 1319.15 1131.9C1319.07 1131.71 1318.98 1131.53 1318.9 1131.35C1318.9 1131.35 1318.9 1131.34 1318.9 1131.35C1308.81 1108.02 1291.92 1087.9 1270.69 1073.93C1249.29 1059.85 1223.89 1052.29 1198.27 1052.37L1198.26 1052.39ZM1198.35 1079.05C1218.63 1078.99 1239.09 1085.08 1256.02 1096.22C1272.48 1107.05 1285.86 1122.83 1293.91 1140.82C1297.08 1164.62 1298.87 1188.6 1299.26 1212.61C1300.01 1258.34 1295.66 1304.17 1286.35 1348.95C1269.86 1400.46 1235.57 1446.4 1190.85 1476.82C1158.34 1498.94 1120.32 1513.09 1081.26 1517.62H914.159C914.025 1517.64 913.891 1517.66 913.757 1517.68C913.58 1517.67 913.404 1517.66 913.227 1517.65C905.186 1518.21 896.406 1515 890.622 1509.39C884.839 1503.78 881.368 1495.09 881.69 1487.03C881.998 1479.35 885.752 1471.37 891.482 1466.24C897.213 1461.1 905.552 1458.24 913.227 1458.78C913.367 1458.77 913.508 1458.76 913.649 1458.75C913.819 1458.77 913.988 1458.79 914.159 1458.81H992.17C1012.87 1459.59 1033.53 1453.82 1050.81 1442.4C1078.18 1424.31 1095.21 1392.91 1095.45 1360.1C1095.45 1360.08 1095.45 1360.06 1095.45 1360.03C1095.45 1360.02 1095.45 1360.01 1095.45 1360V1168.62C1098.93 1144.34 1111.49 1121.11 1129.92 1104.93C1148.56 1088.59 1173.56 1079.13 1198.35 1079.04V1079.05Z" fill="#FF4D4C"/>
<path d="M1257.1 935.009C1252.37 934.935 1247.62 935.334 1242.94 936.207C1230.44 938.531 1218.74 944.176 1209.14 952.504C1195.94 963.96 1187.33 980.016 1185.09 997.352C1185.08 997.578 1185.08 997.804 1185.09 998.029C1185.04 998.37 1185 998.712 1184.97 999.055V1053.19C1189.38 1052.71 1193.81 1052.4 1198.26 1052.39C1202.74 1052.36 1207.2 1052.68 1211.64 1053.12V1000.06C1213.17 989.655 1218.68 979.524 1226.62 972.639C1232.57 967.473 1240.06 963.867 1247.81 962.425C1255.56 960.983 1263.85 961.653 1271.26 964.332C1272.91 964.927 1274.66 965.192 1276.41 965.112C1278.16 965.032 1279.87 964.608 1281.46 963.865C1283.04 963.122 1284.47 962.074 1285.65 960.78C1286.83 959.487 1287.74 957.973 1288.34 956.327C1289.54 953.001 1289.37 949.334 1287.87 946.134C1286.36 942.933 1283.65 940.46 1280.33 939.259C1274.35 937.099 1268.13 935.752 1261.84 935.238C1260.26 935.11 1258.68 935.034 1257.1 935.009Z" fill="#333333"/>
<path d="M319.778 1042.39C314.276 1042.47 308.768 1043 303.314 1044.01C282.794 1047.81 263.771 1058.08 249.346 1073.16C248.535 1074.01 247.839 1074.97 247.278 1076C247.268 1076.01 247.259 1076.02 247.25 1076.02L1.53611 1529.36C1.17342 1530.34 0.928578 1531.37 0.806944 1532.42C0.39199 1533.5 0.120917 1534.63 0 1535.79C0.133942 1536.9 0.407 1537.99 0.8125 1539.03C0.947007 1540.12 1.2149 1541.18 1.60972 1542.2C1.67814 1542.27 1.74666 1542.34 1.81667 1542.42C2.48505 1543.3 3.26189 1544.11 4.12917 1544.8C4.87289 1545.72 5.73677 1546.54 6.69722 1547.24C6.76575 1547.3 6.83427 1547.37 6.90417 1547.43C7.86809 1547.78 8.87004 1548.02 9.88889 1548.15C11.0012 1548.58 12.1664 1548.85 13.3528 1548.97C14.45 1548.84 15.5257 1548.56 16.5556 1548.16C17.6488 1548.03 18.7216 1547.76 19.7486 1547.36L472.499 1295.05C472.602 1294.98 472.704 1294.91 472.806 1294.84C472.865 1294.81 472.923 1294.79 472.982 1294.76C495.407 1280.99 510.357 1256.97 512.815 1230.77C514.715 1210.53 509.135 1190.05 497.253 1173.56C497.241 1173.55 497.229 1173.53 497.217 1173.51C497.137 1173.4 497.063 1173.29 496.983 1173.18C496.954 1173.15 496.924 1173.12 496.894 1173.09C496.461 1172.5 495.981 1171.94 495.457 1171.43L386.358 1066.38C386.331 1066.36 386.303 1066.34 386.275 1066.32C386.088 1066.13 385.895 1065.95 385.697 1065.78C368.718 1051.49 347.223 1043.37 325.265 1042.47C323.435 1042.39 321.605 1042.37 319.771 1042.39L319.778 1042.39ZM320.107 1069.1C337.41 1068.93 355.06 1074.98 368.257 1085.96L476.039 1189.74C483.756 1200.76 487.529 1214.89 486.274 1228.27C484.638 1245.7 474.02 1262.79 459.117 1271.98L46.8569 1501.72L130.585 1347.24L165.549 1371.43C166.989 1372.43 168.612 1373.13 170.324 1373.5C172.035 1373.87 173.802 1373.9 175.525 1373.59C177.248 1373.27 178.892 1372.62 180.364 1371.67C181.835 1370.72 183.105 1369.49 184.101 1368.05C186.112 1365.15 186.886 1361.56 186.253 1358.08C185.62 1354.6 183.633 1351.52 180.726 1349.51L143.367 1323.65L190.138 1237.36L248.169 1289.44C249.473 1290.61 250.993 1291.51 252.644 1292.09C254.296 1292.68 256.047 1292.93 257.796 1292.83C259.545 1292.74 261.258 1292.3 262.838 1291.54C264.417 1290.79 265.833 1289.73 267.003 1288.42C269.364 1285.79 270.583 1282.33 270.392 1278.8C270.2 1275.27 268.613 1271.96 265.981 1269.6L203.206 1213.26L248.149 1130.34L329.033 1204.21C330.326 1205.39 331.84 1206.31 333.486 1206.9C335.133 1207.5 336.88 1207.77 338.629 1207.69C340.379 1207.61 342.096 1207.18 343.682 1206.44C345.268 1205.7 346.691 1204.65 347.872 1203.36C350.256 1200.75 351.505 1197.29 351.344 1193.76C351.184 1190.23 349.628 1186.91 347.018 1184.52L261.242 1106.18L269.783 1090.42C280.126 1080.11 293.816 1072.89 308.164 1070.23C312.086 1069.51 316.086 1069.13 320.107 1069.1Z" fill="#FBA021"/>
<path d="M602.965 932.007C599.432 932.12 596.088 933.633 593.669 936.211L460.179 1078.6L495.736 957.164C496.229 955.483 496.385 953.722 496.197 951.98C496.009 950.239 495.479 948.552 494.639 947.015C493.798 945.479 492.663 944.123 491.298 943.025C489.934 941.927 488.366 941.108 486.685 940.617C485.004 940.125 483.243 939.97 481.503 940.158C479.762 940.347 478.075 940.876 476.539 941.717C475.003 942.557 473.647 943.692 472.55 945.057C471.452 946.421 470.635 947.989 470.143 949.669L425.06 1103.63L456.065 1133.49L609.486 1075.11C611.122 1074.48 612.621 1073.54 613.894 1072.34C615.168 1071.14 616.192 1069.7 616.908 1068.1C617.624 1066.5 618.019 1064.78 618.069 1063.03C618.119 1061.28 617.823 1059.53 617.2 1057.9C615.941 1054.6 613.422 1051.93 610.197 1050.48C606.972 1049.04 603.305 1048.93 600.001 1050.18L480.872 1095.52L613.122 954.45C615.54 951.87 616.834 948.435 616.719 944.901C616.605 941.368 615.092 938.025 612.512 935.607C609.933 933.189 606.499 931.893 602.965 932.007Z" fill="#333333"/>
<g clip-path="url(#clip1_1_64)">
<g clip-path="url(#clip2_1_64)">
<path d="M1807.09 1171.91C1765.67 1171.91 1731.8 1205.77 1731.8 1247.19C1731.8 1287.47 1763.83 1320.6 1803.68 1322.4C1798.64 1332.48 1795.78 1343.83 1795.78 1355.82C1795.78 1394.71 1825.62 1426.93 1863.54 1430.74C1858.54 1440.79 1855.71 1452.1 1855.71 1464.04C1855.71 1505.46 1889.58 1539.33 1931 1539.33C1972.43 1539.33 2006.29 1505.46 2006.29 1464.04C2006.29 1452.21 2003.52 1441 1998.61 1431.02C2038.37 1429.11 2070.27 1396.03 2070.27 1355.82C2070.27 1343.72 2067.37 1332.28 2062.24 1322.12C2100.26 1318.41 2130.2 1286.15 2130.2 1247.19C2130.2 1205.77 2096.34 1171.91 2054.91 1171.91C2029.29 1171.91 2006.58 1184.87 1992.96 1204.56C1979.35 1184.87 1956.63 1171.91 1931 1171.91C1905.38 1171.91 1882.66 1184.87 1869.05 1204.56C1855.43 1184.87 1832.71 1171.91 1807.09 1171.91ZM1807.09 1198.57C1834.1 1198.57 1855.71 1220.18 1855.71 1247.19C1855.71 1274.21 1834.1 1295.82 1807.09 1295.82C1780.08 1295.82 1758.47 1274.21 1758.47 1247.19C1758.47 1220.18 1780.08 1198.57 1807.09 1198.57ZM1931 1198.57C1958.01 1198.57 1979.62 1220.18 1979.62 1247.19C1979.62 1274.21 1958.01 1295.82 1931 1295.82C1903.99 1295.82 1882.38 1274.21 1882.38 1247.19C1882.38 1220.18 1903.99 1198.57 1931 1198.57ZM2054.91 1198.57C2081.93 1198.57 2103.53 1220.18 2103.53 1247.19C2103.53 1274.21 2081.93 1295.82 2054.91 1295.82C2027.9 1295.82 2006.29 1274.21 2006.29 1247.19C2006.29 1220.18 2027.9 1198.57 2054.91 1198.57ZM1871.08 1307.2C1898.09 1307.2 1919.7 1328.81 1919.7 1355.82C1919.7 1372.94 1911.02 1387.87 1897.79 1396.53C1895.68 1397.57 1893.62 1398.72 1891.62 1399.95C1885.39 1402.84 1878.44 1404.45 1871.08 1404.45C1844.07 1404.45 1822.45 1382.84 1822.45 1355.82C1822.45 1328.81 1844.07 1307.2 1871.08 1307.2ZM1994.99 1307.2C2022 1307.2 2043.61 1328.81 2043.61 1355.82C2043.61 1382.84 2022 1404.45 1994.99 1404.45C1967.98 1404.45 1946.36 1382.84 1946.36 1355.82C1946.36 1328.81 1967.98 1307.2 1994.99 1307.2ZM1931 1415.42C1958.01 1415.42 1979.62 1437.03 1979.62 1464.04C1979.62 1491.05 1958.01 1512.67 1931 1512.67C1903.99 1512.67 1882.38 1491.05 1882.38 1464.04C1882.38 1446.93 1891.06 1432 1904.28 1423.34C1906.4 1422.29 1908.46 1421.15 1910.47 1419.91C1916.7 1417.03 1923.65 1415.42 1931 1415.42Z" fill="#355FD1"/>
<path d="M2034.71 940.778C1998.13 945.209 1964.35 965.63 1943.43 995.965C1939.66 1001.43 1936.41 1007.12 1933.5 1012.93C1930.06 1006.05 1925.86 999.539 1920.92 993.569C1906.89 976.628 1887.51 964.532 1866.13 959.387C1860.79 958.101 1855.36 957.261 1849.91 956.856C1833.73 955.656 1817.33 958.324 1802.32 964.7C1802.16 964.768 1801.99 964.833 1801.83 964.901C1801.32 965.177 1800.83 965.485 1800.37 965.824C1799.73 966.16 1799.11 966.548 1798.53 966.985C1798.03 967.462 1797.56 967.977 1797.14 968.526C1796.66 969.024 1796.21 969.559 1795.81 970.126C1795.48 970.736 1795.19 971.372 1794.96 972.027C1794.68 972.563 1794.43 973.118 1794.22 973.688C1794.18 973.862 1794.14 974.04 1794.09 974.214C1788.62 995.12 1790.7 1017.58 1799.95 1037.12C1809.27 1056.82 1825.52 1072.78 1845.38 1081.76C1860.46 1088.57 1877.22 1091.22 1893.65 1089.38C1900.3 1088.64 1906.84 1087.16 1913.14 1085.01C1909.3 1114.43 1909.97 1144.4 1915.1 1173.63C1920.24 1172.51 1925.55 1171.89 1931.01 1171.89C1934.76 1171.89 1938.43 1172.2 1942.03 1172.74C1935.18 1136.77 1935.82 1099.32 1944.01 1063.65C1948.41 1044.46 1954.99 1026.18 1965.39 1011.09C1981.8 987.293 2009.23 970.712 2037.93 967.235C2039.66 967.024 2041.34 966.473 2042.87 965.613C2044.39 964.753 2045.73 963.601 2046.81 962.222C2047.89 960.844 2048.69 959.266 2049.16 957.579C2049.63 955.892 2049.77 954.13 2049.56 952.392C2049.13 948.882 2047.33 945.685 2044.54 943.504C2041.76 941.323 2038.23 940.337 2034.72 940.762L2034.71 940.778ZM1841.88 983.272C1847.96 983.229 1854.04 983.908 1859.9 985.319C1875.54 989.082 1890.11 998.179 1900.37 1010.57C1910.32 1022.59 1916.42 1038.07 1917.51 1053.69C1909.37 1058.63 1900.11 1061.85 1890.68 1062.9C1879.08 1064.19 1866.99 1062.27 1856.35 1057.47C1842.41 1051.17 1830.58 1039.56 1824.03 1025.73C1818.43 1013.89 1816.55 1000.06 1818.61 987.049C1826.09 984.609 1833.99 983.328 1841.88 983.272Z" fill="#333333"/>
</g>
</g>
<path d="M1671.38 1811C1667.85 1811 1664.46 1812.41 1661.95 1814.91C1659.45 1817.41 1658.05 1820.8 1658.05 1824.33V1897.01C1627.73 1952.8 1614.42 2017.49 1620.4 2080.72C1626.19 2142 1650.2 2201.85 1690.97 2248.52C1751.43 2317.72 1844.95 2352.61 1935.95 2348.69C1997.54 2346.04 2058.16 2326.49 2109.7 2292.65C2109.89 2292.5 2110.07 2292.36 2110.25 2292.2C2110.55 2291.98 2110.83 2291.75 2111.11 2291.51C2111.54 2291.13 2111.95 2290.72 2112.34 2290.28C2112.58 2290.01 2112.82 2289.73 2113.04 2289.43C2113.4 2288.95 2113.71 2288.44 2114 2287.92C2114.17 2287.62 2114.34 2287.32 2114.49 2287.02C2114.74 2286.42 2114.96 2285.81 2115.13 2285.19C2115.23 2284.9 2115.32 2284.61 2115.4 2284.32C2115.6 2283.42 2115.7 2282.5 2115.71 2281.57C2115.71 2281.55 2115.71 2281.52 2115.71 2281.5V2202.03C2115.71 2201.66 2115.69 2201.29 2115.66 2200.93C2115.46 2198.61 2114.67 2196.39 2113.35 2194.48C2113.33 2194.46 2113.31 2194.43 2113.29 2194.4C2113.08 2194.1 2112.86 2193.81 2112.62 2193.53C2134.13 2183.17 2154.87 2171.24 2174.63 2157.85C2197.73 2142.21 2219.48 2124.59 2239.57 2105.25C2239.92 2104.91 2240.24 2104.55 2240.55 2104.18C2240.63 2104.09 2240.71 2103.99 2240.78 2103.9C2241.08 2103.53 2241.35 2103.15 2241.6 2102.75C2241.6 2102.74 2241.6 2102.73 2241.6 2102.72C2241.87 2102.3 2242.11 2101.86 2242.33 2101.41C2242.36 2101.33 2242.39 2101.26 2242.43 2101.18C2242.61 2100.78 2242.78 2100.37 2242.92 2099.94C2242.94 2099.89 2242.96 2099.84 2242.98 2099.79C2243.13 2099.32 2243.26 2098.85 2243.36 2098.37C2243.38 2098.28 2243.39 2098.19 2243.41 2098.1C2243.48 2097.7 2243.54 2097.29 2243.58 2096.88C2243.59 2096.77 2243.6 2096.67 2243.61 2096.57C2243.64 2096.1 2243.65 2095.64 2243.64 2095.17C2243.63 2095.07 2243.62 2094.97 2243.61 2094.87C2243.59 2094.45 2243.54 2094.03 2243.48 2093.62C2243.47 2093.54 2243.46 2093.46 2243.44 2093.38C2243.36 2092.88 2243.25 2092.39 2243.11 2091.9C2243.1 2091.87 2243.09 2091.83 2243.07 2091.8C2242.95 2091.38 2242.8 2090.97 2242.64 2090.57C2242.59 2090.46 2242.54 2090.35 2242.5 2090.25C2242.1 2089.35 2241.6 2088.5 2241.02 2087.71C2240.97 2087.64 2240.92 2087.57 2240.87 2087.5C2240.78 2087.39 2240.69 2087.27 2240.6 2087.16L2190.77 2026.55C2190.01 2025.66 2189.13 2024.87 2188.16 2024.2C2188.04 2024.12 2187.92 2024.04 2187.8 2023.96C2186 2022.74 2183.93 2021.98 2181.77 2021.75C2181.7 2021.75 2181.63 2021.75 2181.56 2021.75C2181.52 2021.75 2181.47 2021.75 2181.43 2021.75C2179.2 2021.6 2176.96 2022.01 2174.93 2022.95C2174.87 2022.96 2174.8 2022.97 2174.73 2022.99C2112.96 2052.46 2041.43 2061.67 1974.21 2048.82C1892.51 2033.19 1817.29 1984.35 1769.54 1916.24V1824.33C1769.54 1823.96 1769.53 1823.6 1769.5 1823.23C1769.5 1823.21 1769.5 1823.19 1769.5 1823.17C1769.48 1823.02 1769.46 1822.88 1769.44 1822.74C1769.42 1822.52 1769.39 1822.3 1769.35 1822.09C1769.32 1821.92 1769.29 1821.76 1769.25 1821.6C1769.21 1821.39 1769.16 1821.18 1769.11 1820.97C1769.07 1820.82 1769.03 1820.66 1768.98 1820.51C1768.92 1820.3 1768.85 1820.09 1768.78 1819.88C1768.73 1819.74 1768.67 1819.6 1768.61 1819.46C1768.52 1819.23 1768.43 1819.02 1768.33 1818.8C1768.28 1818.68 1768.22 1818.57 1768.17 1818.45C1768.06 1818.23 1767.95 1818.02 1767.83 1817.8C1767.75 1817.66 1767.66 1817.52 1767.57 1817.38C1767.47 1817.21 1767.36 1817.03 1767.24 1816.86C1767.14 1816.71 1767.03 1816.55 1766.92 1816.4C1766.81 1816.26 1766.7 1816.11 1766.59 1815.97C1766.47 1815.83 1766.36 1815.69 1766.24 1815.56C1766.09 1815.39 1765.93 1815.22 1765.78 1815.05C1765.67 1814.95 1765.57 1814.84 1765.46 1814.74C1765.31 1814.6 1765.17 1814.46 1765.01 1814.33C1764.87 1814.21 1764.73 1814.08 1764.58 1813.97C1764.44 1813.85 1764.29 1813.73 1764.13 1813.62C1763.98 1813.5 1763.81 1813.39 1763.65 1813.27C1763.5 1813.18 1763.35 1813.08 1763.2 1812.99C1763.04 1812.89 1762.88 1812.79 1762.71 1812.7C1762.53 1812.6 1762.35 1812.51 1762.17 1812.42C1762.02 1812.34 1761.86 1812.26 1761.7 1812.19C1761.54 1812.12 1761.38 1812.05 1761.22 1811.99C1761.02 1811.9 1760.8 1811.82 1760.59 1811.74C1760.46 1811.69 1760.32 1811.65 1760.19 1811.61C1759.99 1811.55 1759.79 1811.49 1759.58 1811.43C1759.34 1811.37 1759.09 1811.32 1758.85 1811.27C1758.72 1811.24 1758.6 1811.22 1758.47 1811.19C1758.11 1811.13 1757.74 1811.08 1757.37 1811.05C1757.35 1811.05 1757.33 1811.05 1757.31 1811.05C1756.94 1811.02 1756.58 1811 1756.21 1811L1671.38 1811ZM1684.72 1837.67H1742.9V1920.54C1742.9 1920.55 1742.9 1920.56 1742.9 1920.57C1741.13 1959.71 1748.46 1999.13 1764.23 2035C1797.72 2111.22 1867.21 2166.68 1944.33 2194.38C1990.56 2210.99 2039.98 2218.4 2089.04 2216.22V2274.16C2042.9 2302.96 1989.13 2319.72 1934.79 2322.06C1851.43 2325.65 1765.42 2293.2 1711.05 2230.98C1674.31 2188.93 1652.23 2134.22 1646.94 2078.22C1641.37 2019.29 1654.16 1958.52 1683.02 1906.84C1683.09 1906.69 1683.15 1906.55 1683.21 1906.4C1683.36 1906.1 1683.49 1905.79 1683.62 1905.47C1683.85 1904.92 1684.05 1904.36 1684.21 1903.79C1684.3 1903.43 1684.38 1903.06 1684.45 1902.7C1684.55 1902.13 1684.61 1901.56 1684.64 1900.98C1684.67 1900.77 1684.69 1900.55 1684.71 1900.34L1684.72 1837.67ZM1771.21 1961.32C1822.44 2019.51 1892.92 2060.41 1969.23 2075.01C2038.74 2088.3 2111.95 2079.87 2176.69 2051.38L2212.09 2094.44C2195.64 2109.45 2178.12 2123.28 2159.69 2135.77C2126.66 2158.15 2090.7 2176.22 2053.05 2189.4C2019.07 2187.54 1985.35 2180.78 1953.35 2169.28C1882.13 2143.7 1818.56 2092.35 1788.64 2024.27C1779.86 2004.29 1774 1983 1771.21 1961.32Z" fill="#FBA021"/>
<path d="M2771.45 933C2752.75 933 2734.36 939.054 2719.31 950.161C2708.4 958.213 2699.53 968.743 2693.37 980.729C2683.09 976.86 2672.08 975.025 2661.04 975.411C2644.85 975.98 2629.05 981.313 2615.83 990.676C2596.83 1004.12 2584.37 1025.26 2581.37 1048.08C2547.96 1050.13 2515.7 1064.6 2492.14 1088.56C2465.49 1115.65 2451.13 1153.68 2453.2 1191.63C2455.26 1229.57 2473.67 1265.8 2503.11 1289.84C2532.54 1313.88 2571.72 1324.69 2609.32 1319.14C2646.83 1313.6 2680.84 1291.82 2702.13 1260.77C2718.06 1276.96 2739.51 1287.44 2762.36 1289.59C2780.25 1291.28 2798.41 1287.92 2814.51 1279.95C2824.31 1275.09 2833.2 1268.59 2840.81 1260.81C2862.1 1291.84 2896.1 1313.6 2933.59 1319.14C2971.19 1324.69 3010.37 1313.88 3039.8 1289.84C3069.23 1265.8 3087.65 1229.57 3089.72 1191.63C3091.78 1153.68 3077.42 1115.65 3050.77 1088.56C3027.21 1064.6 2994.95 1050.13 2961.54 1048.08C2958.54 1025.26 2946.07 1004.12 2927.08 990.676C2913.86 981.312 2898.06 975.979 2881.86 975.411C2870.82 975.024 2859.81 976.863 2849.53 980.735C2843.37 968.747 2834.51 958.214 2823.6 950.161C2808.55 939.054 2790.16 933 2771.46 933H2771.45ZM2771.45 959.667C2784.32 959.667 2797.4 963.979 2807.75 971.619C2818.1 979.26 2826.07 990.498 2829.86 1002.79C2829.94 1002.97 2830.02 1003.14 2830.11 1003.32C2830.39 1004.18 2830.76 1005.01 2831.21 1005.79C2831.31 1005.92 2831.41 1006.05 2831.51 1006.17C2831.78 1006.54 2832.06 1006.89 2832.36 1007.22C2832.89 1007.89 2833.48 1008.5 2834.12 1009.05C2834.5 1009.35 2834.88 1009.63 2835.29 1009.9C2835.99 1010.36 2836.74 1010.75 2837.51 1011.07C2837.93 1011.26 2838.36 1011.43 2838.8 1011.57C2839.7 1011.82 2840.61 1011.98 2841.54 1012.05C2841.9 1012.1 2842.25 1012.14 2842.61 1012.17C2843.91 1012.17 2845.2 1011.99 2846.44 1011.62C2846.47 1011.62 2846.5 1011.62 2846.52 1011.62C2847.53 1011.3 2848.49 1010.87 2849.39 1010.33C2849.44 1010.31 2849.48 1010.29 2849.52 1010.27C2858.84 1004.61 2870.03 1001.69 2880.93 1002.07C2891.82 1002.45 2902.77 1006.15 2911.67 1012.45C2926.68 1023.08 2936.21 1042.37 2935.54 1060.74C2935.56 1060.96 2935.58 1061.17 2935.6 1061.38C2935.58 1061.5 2935.56 1061.62 2935.55 1061.73C2935.59 1061.94 2935.64 1062.14 2935.69 1062.35C2935.8 1063.67 2936.12 1064.97 2936.61 1066.2C2936.7 1066.48 2936.81 1066.75 2936.91 1067.02C2937.59 1068.39 2938.5 1069.64 2939.6 1070.71C2939.84 1070.93 2940.09 1071.14 2940.35 1071.34C2941.36 1072.19 2942.49 1072.88 2943.7 1073.4C2943.97 1073.54 2944.24 1073.66 2944.51 1073.78C2945.76 1074.23 2947.06 1074.49 2948.38 1074.55C2948.59 1074.54 2948.8 1074.52 2949 1074.49C2949.12 1074.52 2949.25 1074.53 2949.37 1074.55C2979.56 1073.41 3010.57 1085.72 3031.75 1107.27C3052.94 1128.81 3064.73 1160.01 3063.09 1190.18C3061.44 1220.35 3046.33 1250.09 3022.93 1269.2C2999.53 1288.32 2967.37 1297.18 2937.48 1292.77C2902.38 1287.59 2869.79 1263.53 2854.5 1231.52C2854.47 1231.49 2854.45 1231.45 2854.42 1231.42C2853.69 1229.91 2852.67 1228.56 2851.43 1227.43C2851.38 1227.39 2851.33 1227.35 2851.29 1227.31C2850.73 1226.81 2850.14 1226.36 2849.51 1225.96C2848.97 1225.68 2848.41 1225.45 2847.83 1225.25C2847.34 1225.01 2846.85 1224.8 2846.33 1224.61C2845.06 1224.23 2843.73 1224.04 2842.4 1224.05C2842.15 1224.02 2841.9 1224 2841.65 1223.98C2840.06 1224.1 2838.51 1224.49 2837.06 1225.15C2836.94 1225.18 2836.83 1225.21 2836.71 1225.24C2836.43 1225.44 2836.15 1225.64 2835.88 1225.86C2834.89 1226.42 2833.98 1227.1 2833.16 1227.89C2832.78 1228.29 2832.41 1228.71 2832.08 1229.14C2831.75 1229.49 2831.43 1229.85 2831.14 1230.22C2824.31 1241.19 2814.25 1250.33 2802.67 1256.06C2791.09 1261.8 2777.72 1264.27 2764.85 1263.06C2743.66 1261.06 2723.04 1248.32 2711.77 1230.26C2711.77 1230.26 2711.77 1230.23 2711.74 1230.22C2711.73 1230.21 2711.72 1230.19 2711.7 1230.17C2711.12 1229.25 2710.42 1228.41 2709.63 1227.66C2709.58 1227.6 2709.52 1227.55 2709.47 1227.49C2708.69 1226.78 2707.83 1226.16 2706.9 1225.66C2706.79 1225.59 2706.67 1225.52 2706.55 1225.45C2706.43 1225.38 2706.3 1225.31 2706.17 1225.24C2705.97 1225.18 2705.77 1225.13 2705.56 1225.08C2704.88 1224.76 2704.17 1224.49 2703.44 1224.29C2702.9 1224.2 2702.36 1224.15 2701.81 1224.13C2701.44 1224.08 2701.07 1224.04 2700.69 1224.02C2699.17 1223.98 2697.66 1224.19 2696.22 1224.66C2695.96 1224.77 2695.7 1224.89 2695.45 1225.01C2694.73 1225.27 2694.04 1225.58 2693.37 1225.96C2693 1226.25 2692.65 1226.55 2692.31 1226.88C2691.86 1227.22 2691.44 1227.58 2691.04 1227.98C2690.26 1228.78 2689.59 1229.68 2689.04 1230.65C2688.81 1230.93 2688.59 1231.22 2688.39 1231.52C2673.09 1263.53 2640.5 1287.59 2605.41 1292.77C2575.52 1297.18 2543.36 1288.32 2519.96 1269.2C2496.56 1250.09 2481.45 1220.35 2479.8 1190.18C2478.16 1160.01 2489.95 1128.81 2511.14 1107.27C2532.32 1085.72 2563.32 1073.41 2593.52 1074.55C2593.64 1074.54 2593.76 1074.52 2593.89 1074.5C2594.09 1074.52 2594.3 1074.54 2594.51 1074.55C2595.91 1074.5 2597.29 1074.22 2598.6 1073.74C2598.64 1073.73 2598.68 1073.71 2598.71 1073.69C2600.31 1073.09 2601.78 1072.19 2603.04 1071.04C2603.07 1071.01 2603.1 1070.97 2603.14 1070.94C2604.38 1069.77 2605.39 1068.38 2606.1 1066.84C2606.12 1066.8 2606.14 1066.76 2606.15 1066.72C2606.86 1065.17 2607.26 1063.49 2607.34 1061.79C2607.34 1061.77 2607.34 1061.75 2607.34 1061.74C2607.34 1061.65 2607.34 1061.56 2607.34 1061.47C2607.34 1061.23 2607.34 1060.99 2607.34 1060.75C2606.67 1042.37 2616.21 1023.08 2631.21 1012.46C2640.11 1006.16 2651.06 1002.46 2661.96 1002.08C2672.85 1001.69 2684.04 1004.62 2693.35 1010.28C2694.14 1010.73 2694.98 1011.09 2695.84 1011.37C2696.01 1011.46 2696.18 1011.54 2696.35 1011.62C2696.38 1011.62 2696.41 1011.62 2696.44 1011.62C2697.68 1011.99 2698.97 1012.18 2700.26 1012.17C2700.61 1012.15 2700.96 1012.11 2701.31 1012.06C2702.25 1011.99 2703.19 1011.83 2704.11 1011.57C2704.52 1011.43 2704.93 1011.27 2705.33 1011.09C2706.13 1010.77 2706.89 1010.36 2707.61 1009.89C2708 1009.64 2708.38 1009.36 2708.74 1009.07C2709.41 1008.5 2710.02 1007.87 2710.57 1007.18C2710.84 1006.87 2711.1 1006.54 2711.34 1006.21C2711.46 1006.07 2711.57 1005.94 2711.67 1005.8C2712.23 1004.88 2712.67 1003.89 2712.98 1002.87C2712.99 1002.84 2713.01 1002.82 2713.02 1002.8C2716.81 990.502 2724.78 979.264 2735.13 971.624C2745.48 963.983 2758.57 959.671 2771.43 959.671L2771.45 959.667Z" fill="#2AFF2A"/>
<path d="M2638.14 1311.44C2628.88 1315.05 2619.23 1317.68 2609.31 1319.14C2607.61 1319.39 2605.9 1319.57 2604.19 1319.75C2632.76 1338.35 2656.95 1363.85 2673.93 1393.4C2697.68 1434.75 2707.25 1484.4 2700.57 1531.62C2700.57 1531.82 2700.59 1532.03 2700.6 1532.23C2700.53 1532.65 2700.47 1533.07 2700.43 1533.49C2700.45 1534.55 2700.58 1535.6 2700.85 1536.62C2700.86 1536.7 2700.87 1536.78 2700.88 1536.85C2701.3 1538.34 2701.97 1539.75 2702.88 1541C2703.09 1541.31 2703.32 1541.61 2703.56 1541.9C2704.49 1543.06 2705.61 1544.06 2706.86 1544.85C2706.92 1544.9 2706.97 1544.94 2707.03 1544.99C2708.38 1545.74 2709.85 1546.26 2711.38 1546.51C2711.55 1546.58 2711.72 1546.64 2711.9 1546.69C2712.1 1546.69 2712.31 1546.67 2712.51 1546.66C2712.93 1546.73 2713.35 1546.79 2713.77 1546.82H2829.13C2829.55 1546.79 2829.97 1546.73 2830.38 1546.66C2830.59 1546.67 2830.79 1546.69 2831 1546.69C2831.49 1546.62 2831.98 1546.51 2832.45 1546.39C2832.51 1546.37 2832.57 1546.36 2832.63 1546.35C2833.7 1546.06 2834.72 1545.63 2835.68 1545.08C2835.73 1545.06 2835.78 1545.03 2835.83 1545.01C2836.81 1544.44 2837.71 1543.75 2838.51 1542.95C2838.53 1542.93 2838.55 1542.92 2838.56 1542.9C2839.36 1542.1 2840.06 1541.2 2840.63 1540.22C2840.64 1540.19 2840.66 1540.16 2840.68 1540.13C2841.24 1539.15 2841.68 1538.1 2841.97 1537.01C2841.99 1536.98 2842 1536.95 2842.01 1536.91C2842.3 1535.81 2842.45 1534.67 2842.45 1533.52C2842.45 1533.51 2842.45 1533.5 2842.45 1533.49C2842.45 1533.32 2842.44 1533.15 2842.43 1532.98C2842.41 1532.64 2842.39 1532.3 2842.35 1531.97C2842.34 1531.86 2842.33 1531.75 2842.32 1531.64C2835.64 1484.43 2845.21 1434.78 2868.96 1393.43C2885.94 1363.87 2910.12 1338.37 2938.69 1319.78C2936.98 1319.59 2935.28 1319.41 2933.57 1319.16C2923.66 1317.7 2914 1315.07 2904.75 1311.47C2881.08 1330.45 2860.97 1353.81 2845.84 1380.15C2821.6 1422.35 2810.6 1471.71 2814.31 1520.18H2728.56C2732.27 1471.71 2721.28 1422.35 2697.03 1380.15C2681.9 1353.81 2661.79 1330.44 2638.13 1311.47L2638.14 1311.44Z" fill="#333333"/>
<path d="M1094.67 1894.91C1092.77 1894.88 1090.86 1894.91 1088.94 1894.98C1062.4 1896.08 1038.29 1908.15 1019.07 1924.18C999.963 1940.11 985.456 1959.68 972.493 1978.98C937.833 2030.61 909.202 2088.77 901.192 2152.16C897.183 2183.87 898.481 2216.56 906.681 2247.9C914.888 2279.28 930.066 2309.11 952.139 2333.44C979.935 2364.09 1017.96 2384.89 1058.78 2391.72C1099.61 2398.54 1142.38 2391.24 1178.59 2371.17C1210.15 2353.68 1235.98 2327.08 1253.64 2296.01C1271.28 2264.96 1280.72 2229.8 1282.42 2194.47C1285.92 2121.6 1257.24 2052.27 1221.31 1991.73C1207.59 1968.62 1191.96 1945.07 1170.19 1926.27C1149.62 1908.5 1123.21 1895.42 1094.67 1894.91ZM1090.05 1921.62C1112.03 1920.7 1134.78 1930.92 1152.76 1946.45C1170.92 1962.13 1185.17 1983.1 1198.37 2005.35C1232.9 2063.52 1258.91 2128.18 1255.78 2193.2C1254.27 2224.63 1245.84 2255.76 1230.46 2282.82C1215.09 2309.85 1192.57 2332.93 1165.67 2347.84C1134.87 2364.9 1097.92 2371.23 1063.19 2365.42C1028.45 2359.61 995.56 2341.62 971.889 2315.52C953.027 2294.73 939.686 2268.73 932.472 2241.15C925.25 2213.55 924.012 2184.24 927.644 2155.51C934.914 2097.99 961.365 2043.4 994.633 1993.85C1007.08 1975.31 1020.24 1957.92 1036.14 1944.65C1051.94 1931.48 1071.03 1922.41 1090.05 1921.62Z" fill="#2AFF2A"/>
<path d="M1086.38 2048.82C1081.5 2048.86 1076.61 2049.26 1071.76 2050.02C1053.7 2052.82 1036.75 2060.45 1022.51 2071.48C1008.28 2082.5 996.928 2096.74 988.92 2112.55C972.903 2144.18 970.824 2180.86 978.666 2214.38C984.653 2239.97 996.627 2264.97 1016.12 2284.14C1035.76 2303.45 1062.83 2315.98 1091.36 2314.91C1106.73 2314.33 1121.61 2309.85 1134.77 2302.51C1147.91 2295.17 1159.2 2285.11 1168.26 2273.5C1186.39 2250.29 1195.18 2221.73 1197.54 2193.6C1199.72 2167.53 1196.56 2140.35 1185.38 2115.7C1174.15 2090.92 1154.72 2069.3 1129.12 2057.77C1115.69 2051.72 1101.04 2048.69 1086.38 2048.82ZM1086.61 2075.51C1097.45 2075.42 1108.35 2077.66 1118.16 2082.08C1136.88 2090.52 1152.26 2107.22 1161.1 2126.71C1169.99 2146.33 1172.84 2169 1170.96 2191.38C1168.95 2215.45 1161.36 2239.01 1147.25 2257.08C1140.19 2266.11 1131.51 2273.79 1121.78 2279.21C1112.07 2284.63 1101.16 2287.86 1090.36 2288.27C1070.44 2289.01 1049.75 2279.81 1034.82 2265.13C1019.75 2250.31 1009.69 2229.93 1004.63 2208.31C998.023 2180.06 1000.07 2149.56 1012.71 2124.6C1019.03 2112.11 1027.99 2100.97 1038.84 2092.57C1049.67 2084.18 1062.58 2078.42 1075.86 2076.36C1079.41 2075.81 1083 2075.53 1086.61 2075.51Z" fill="#F0B210"/>
<path d="M1002.3 1766.01C985.704 1765.86 969.073 1768.48 953.28 1773.92C952.804 1774.14 952.342 1774.38 951.895 1774.66C951.228 1774.94 950.584 1775.28 949.973 1775.68C949.453 1776.08 948.963 1776.53 948.509 1777.01C947.964 1777.48 947.459 1778 946.999 1778.56C946.62 1779.12 946.284 1779.71 945.994 1780.31C945.632 1780.93 945.321 1781.57 945.062 1782.23C944.873 1782.88 944.733 1783.54 944.645 1784.21C944.496 1784.76 944.38 1785.31 944.301 1785.86C943.215 1807.97 949.984 1830.06 963.264 1847.77C976.545 1865.47 995.847 1878.15 1017.37 1883.3C1036.71 1887.92 1057.23 1886.34 1075.63 1878.82C1076.31 1878.54 1076.98 1878.25 1077.65 1877.95C1076.62 1884.08 1076.08 1890.29 1075.93 1896.51C1080.2 1895.75 1084.52 1895.16 1088.94 1894.98C1090.86 1894.9 1092.77 1894.88 1094.67 1894.91C1097.34 1894.96 1099.97 1895.22 1102.6 1895.48C1103.39 1876.41 1109.48 1857.4 1120.09 1841.6C1120.09 1841.6 1120.09 1841.58 1120.12 1841.57C1136.05 1817.87 1162.74 1801.03 1191 1796.86C1192.73 1796.6 1194.39 1796.01 1195.89 1795.11C1197.4 1794.21 1198.71 1793.02 1199.75 1791.62C1200.8 1790.21 1201.55 1788.61 1201.98 1786.91C1202.4 1785.22 1202.49 1783.45 1202.24 1781.72C1201.72 1778.22 1199.83 1775.07 1196.99 1772.96C1194.16 1770.86 1190.6 1769.96 1187.1 1770.48C1156.93 1774.94 1128.98 1790.28 1108.77 1812.9C1096.18 1799.34 1081.05 1788.18 1064.31 1780.2C1047.08 1771.99 1028.34 1767.31 1009.41 1766.24C1007.04 1766.11 1004.67 1766.03 1002.3 1766.01L1002.3 1766.01ZM1002.05 1792.73C1019.59 1792.9 1037.12 1796.78 1052.84 1804.27C1067.87 1811.44 1081.43 1821.85 1092.31 1834.49C1085.13 1843.05 1075.82 1849.94 1065.54 1854.14C1052.42 1859.5 1037.37 1860.66 1023.58 1857.36C1008.27 1853.7 994.044 1844.36 984.598 1831.77C976.998 1821.63 972.289 1809.12 971.139 1796.43C981.198 1793.88 991.62 1792.63 1002.05 1792.73Z" fill="#333333"/>
<path d="M2770.82 1824C2674.6 1824 2594.63 1892.6 2594.63 1979.24C2594.63 1979.26 2594.63 1979.29 2594.63 1979.31C2594.72 1995.49 2597.73 2011.48 2603.37 2026.74C2516.23 2035.39 2447 2100.36 2447 2180.97C2447 2267.61 2526.97 2336.2 2623.19 2336.2C2623.2 2336.2 2623.21 2336.2 2623.22 2336.2C2682.92 2336.09 2738.2 2309.56 2770.53 2265.69C2802.16 2308.33 2856.84 2336.21 2918.16 2336.21C3014.38 2336.21 3094.35 2267.61 3094.35 2180.97C3094.35 2100.44 3025.26 2035.54 2938.26 2026.77C2943.91 2011.5 2946.92 1995.49 2947.01 1979.31C2947.01 1892.67 2867.05 1824.07 2770.83 1824.07L2770.82 1824ZM2770.82 1850.67C2854.47 1850.67 2920.31 1909.12 2920.33 1979.2C2920.25 1995.21 2916.47 2011 2909.58 2025.92C2851.85 2028.38 2800.83 2055.52 2770.67 2096.05C2739.87 2054.39 2688.36 2028.51 2632.09 2026.01C2625.16 2011.06 2621.38 1995.25 2621.29 1979.2C2621.32 1909.12 2687.16 1850.67 2770.81 1850.67H2770.82ZM2623.2 2052.4C2623.27 2052.4 2623.35 2052.4 2623.43 2052.4C2623.44 2052.4 2623.46 2052.4 2623.48 2052.4C2627.1 2052.4 2630.71 2052.52 2634.28 2052.75C2634.97 2052.8 2635.64 2052.89 2636.32 2052.94C2639.1 2053.16 2641.87 2053.4 2644.62 2053.74C2646.37 2053.97 2648.09 2054.28 2649.83 2054.55C2651.48 2054.81 2653.14 2055.04 2654.77 2055.34C2657.11 2055.79 2659.42 2056.31 2661.73 2056.85C2662.67 2057.06 2663.62 2057.25 2664.55 2057.48C2667.52 2058.23 2670.46 2059.06 2673.36 2059.96C2673.55 2060.02 2673.75 2060.07 2673.94 2060.13C2708.7 2071.08 2737.9 2092.97 2755.33 2121.57C2746.8 2139.7 2742.04 2159.59 2741.98 2180.56C2741.98 2180.67 2741.98 2180.78 2741.98 2180.88C2741.98 2180.93 2741.98 2180.97 2741.98 2181.02C2741.98 2181.12 2741.98 2181.23 2741.98 2181.34C2742.04 2202.21 2746.76 2222.01 2755.21 2240.07C2729.89 2281.87 2679.42 2309.41 2623.2 2309.52C2539.54 2309.52 2473.68 2251.05 2473.67 2180.95C2473.67 2110.85 2539.53 2052.38 2623.2 2052.38L2623.2 2052.4ZM2918.16 2052.4H2918.19C3001.84 2052.4 3067.69 2110.87 3067.69 2180.97C3067.69 2251.07 3001.83 2309.54 2918.17 2309.54C2858.24 2309.54 2807.46 2279.53 2783.46 2236.75C2783.2 2235.87 2782.85 2235.02 2782.42 2234.22C2773.41 2217.44 2768.75 2199.32 2768.65 2180.97C2768.76 2162.54 2773.46 2144.33 2782.56 2127.49C2782.57 2127.47 2782.59 2127.44 2782.6 2127.42C2782.6 2127.42 2782.6 2127.42 2782.6 2127.39C2805.09 2085.25 2852.8 2056.38 2906.99 2052.77C2907.15 2052.77 2907.32 2052.74 2907.48 2052.74C2911.02 2052.51 2914.57 2052.39 2918.16 2052.38L2918.16 2052.4Z" fill="#355FD1"/>
<path d="M2770.82 1911.36C2767.29 1911.36 2763.89 1912.76 2761.39 1915.26C2758.89 1917.77 2757.49 1921.16 2757.49 1924.69V1965.91H2716.28C2712.74 1965.91 2709.35 1967.31 2706.85 1969.81C2704.35 1972.31 2702.94 1975.7 2702.94 1979.24C2702.94 1982.78 2704.35 1986.17 2706.85 1988.67C2709.35 1991.17 2712.74 1992.57 2716.28 1992.57H2757.49V2033.79C2757.49 2037.33 2758.89 2040.72 2761.39 2043.22C2763.89 2045.72 2767.29 2047.13 2770.82 2047.13C2774.36 2047.13 2777.75 2045.72 2780.25 2043.22C2782.75 2040.72 2784.16 2037.33 2784.16 2033.79V1992.57H2825.37C2828.91 1992.57 2832.3 1991.17 2834.8 1988.67C2837.3 1986.17 2838.7 1982.78 2838.7 1979.24C2838.7 1975.7 2837.3 1972.31 2834.8 1969.81C2832.3 1967.31 2828.91 1965.91 2825.37 1965.91H2784.16V1924.69C2784.16 1921.16 2782.75 1917.77 2780.25 1915.26C2777.75 1912.76 2774.36 1911.36 2770.82 1911.36ZM2623.19 2113.08C2619.66 2113.08 2616.26 2114.49 2613.76 2116.99C2611.26 2119.49 2609.86 2122.88 2609.86 2126.42V2167.64H2568.64C2565.1 2167.64 2561.71 2169.04 2559.21 2171.54C2556.71 2174.04 2555.31 2177.43 2555.31 2180.97C2555.31 2184.5 2556.71 2187.9 2559.21 2190.4C2561.71 2192.9 2565.1 2194.3 2568.64 2194.3H2609.86V2235.52C2609.86 2239.05 2611.26 2242.44 2613.76 2244.94C2616.26 2247.44 2619.66 2248.85 2623.19 2248.85C2626.73 2248.85 2630.12 2247.44 2632.62 2244.94C2635.12 2242.44 2636.53 2239.05 2636.53 2235.52V2194.3H2677.74C2681.27 2194.3 2684.67 2192.9 2687.17 2190.4C2689.67 2187.9 2691.07 2184.5 2691.07 2180.97C2691.07 2177.43 2689.67 2174.04 2687.17 2171.54C2684.67 2169.04 2681.27 2167.64 2677.74 2167.64H2636.53V2126.42C2636.53 2122.88 2635.12 2119.49 2632.62 2116.99C2630.12 2114.49 2626.73 2113.08 2623.19 2113.08ZM2918.16 2113.08C2914.62 2113.08 2911.23 2114.49 2908.73 2116.99C2906.23 2119.49 2904.82 2122.88 2904.82 2126.42V2167.64H2863.61C2860.07 2167.64 2856.68 2169.04 2854.18 2171.54C2851.68 2174.04 2850.28 2177.43 2850.28 2180.97C2850.28 2184.5 2851.68 2187.9 2854.18 2190.4C2856.68 2192.9 2860.07 2194.3 2863.61 2194.3H2904.82V2235.52C2904.82 2239.05 2906.23 2242.44 2908.73 2244.94C2911.23 2247.44 2914.62 2248.85 2918.16 2248.85C2921.69 2248.85 2925.08 2247.44 2927.58 2244.94C2930.08 2242.44 2931.49 2239.05 2931.49 2235.52V2194.3H2972.7C2976.24 2194.3 2979.63 2192.9 2982.13 2190.4C2984.63 2187.9 2986.04 2184.5 2986.04 2180.97C2986.04 2177.43 2984.63 2174.04 2982.13 2171.54C2979.63 2169.04 2976.24 2167.64 2972.7 2167.64H2931.49V2126.42C2931.49 2122.88 2930.08 2119.49 2927.58 2116.99C2925.08 2114.49 2921.69 2113.08 2918.16 2113.08Z" fill="#333333"/>
<defs>
<clipPath id="clip0_1_64">
<rect width="800" height="800" fill="white" transform="translate(691)"/>
</clipPath>
<clipPath id="clip1_1_64">
<rect width="800" height="800" fill="white" transform="translate(1531 840)"/>
</clipPath>
<clipPath id="clip2_1_64">
<rect width="800" height="800" fill="white" transform="translate(1531 840)"/>
</clipPath>
</defs>
</svg>
